<svg width="25" height="25" viewBox="0 0 25 25" fill="none" xmlns="http://www.w3.org/2000/svg">
<path fill-rule="evenodd" clip-rule="evenodd" d="M17.1895 5.55243L24.1467 9.48481V11.1049H13.0419V0H24.1467V1.62006L17.1895 5.55243ZM21.7935 9.54131L15.139 6.33421H14.6054V9.54131H21.7935ZM21.7935 1.56356H14.6054V4.77066H15.139L21.7935 1.56356Z" fill="black"/>
<path d="M9.29196 22.2791L9.19235 21.4823H11.1049V24.1467H0V13.0419H1.56356V22.5285L9.29196 22.2791Z" fill="black"/>
<path d="M9.54132 11.1049V1.56356H6.33421V8.90303H4.77066V1.56356H1.56356V11.1049H0V0H11.1049V11.1049H9.54132Z" fill="black"/>
<path d="M14.6054 22.5832H24.1467V24.1467H13.0418V13.0419H24.1467V14.6054H14.6054V17.8125H21.9449V19.3761H14.6054V22.5832Z" fill="black"/>
</svg>
