<svg width="20" height="20" viewBox="0 0 20 20" fill="none" xmlns="http://www.w3.org/2000/svg">
<path d="M11.7501 8.0001V8.2501H12.0001H18C18.9665 8.2501 19.75 9.03359 19.75 10.0001C19.75 10.9666 18.9665 11.7501 18 11.7501H12.0001H11.7501V12.0001V18C11.7501 18.9665 10.9666 19.75 10.0001 19.75C9.03359 19.75 8.2501 18.9665 8.2501 18V12.0001V11.7501H8.0001H1.99998C1.03349 11.7501 0.25 10.9666 0.25 10.0001C0.25 9.03359 1.03349 8.2501 1.99998 8.2501H8.0001H8.2501V8.0001V1.99998C8.2501 1.03349 9.03359 0.25 10.0001 0.25C10.9666 0.25 11.7501 1.03349 11.7501 1.99998V8.0001Z" fill="#667085" stroke="#667085" stroke-width="0.5" stroke-linecap="round"/>
</svg>
