<svg width="20" height="17" viewBox="0 0 20 17" fill="none" xmlns="http://www.w3.org/2000/svg">
<path fill-rule="evenodd" clip-rule="evenodd" d="M1.3749 7.31839C6.74359 4.9193 10.3236 3.33767 12.1148 2.5735C17.2292 0.391658 18.2919 0.0126486 18.9846 0.000133439C19.1369 -0.00261913 19.4776 0.0361057 19.6982 0.219742C19.8845 0.374801 19.9358 0.584264 19.9603 0.731277C19.9848 0.87829 20.0154 1.21319 19.9911 1.47487C19.714 4.46165 18.5147 11.7098 17.9046 15.055C17.6465 16.4705 17.1382 16.9451 16.6461 16.9916C15.5766 17.0925 14.7645 16.2667 13.7287 15.5702C12.1078 14.4805 11.1921 13.8021 9.61879 12.7387C7.80053 11.5097 8.97923 10.8343 10.0154 9.73037C10.2866 9.44148 14.9987 5.04547 15.0899 4.64668C15.1013 4.59681 15.1119 4.41089 15.0042 4.31273C14.8965 4.21456 14.7376 4.24813 14.6229 4.27483C14.4604 4.31267 11.871 6.06807 6.85486 9.54101C6.11988 10.0587 5.45416 10.3109 4.8577 10.2977C4.20015 10.2831 2.93528 9.91632 1.99498 9.60282C0.84166 9.2183 -0.074973 9.01501 0.00484519 8.36197C0.0464194 8.02183 0.503103 7.67397 1.3749 7.31839Z" fill="#667085"/>
</svg>
