<svg width="20" height="20" viewBox="0 0 20 20" fill="none" xmlns="http://www.w3.org/2000/svg">
<path fill-rule="evenodd" clip-rule="evenodd" d="M14.5819 11.9852C14.3331 11.8612 13.1097 11.2621 12.8816 11.1795C12.6536 11.0969 12.4877 11.0556 12.3218 11.3035C12.1559 11.5514 11.6791 12.1091 11.5339 12.2744C11.3888 12.4397 11.2437 12.4604 10.9949 12.3364C10.746 12.2124 9.94432 11.951 8.99394 11.1073C8.25421 10.4507 7.75483 9.63972 7.60969 9.39183C7.46457 9.1439 7.59426 9.0099 7.71885 8.88644C7.83074 8.77555 7.96764 8.59726 8.09205 8.45262C8.21647 8.30798 8.25794 8.20473 8.34088 8.03948C8.42382 7.87419 8.38235 7.72959 8.32007 7.60562C8.25794 7.4817 7.76032 6.26285 7.55297 5.76703C7.351 5.28418 7.14587 5.34953 6.99315 5.34193C6.84814 5.33475 6.68212 5.33321 6.51623 5.33321C6.35035 5.33321 6.08083 5.39521 5.8527 5.64307C5.62465 5.89099 4.98188 6.49013 4.98188 7.70891C4.98188 8.92776 5.87347 10.1053 5.99785 10.2706C6.1223 10.4359 7.75243 12.9371 10.2484 14.0097C10.8421 14.2648 11.3056 14.4172 11.6669 14.5314C12.263 14.7198 12.8054 14.6932 13.2342 14.6294C13.7122 14.5584 14.7063 14.0304 14.9137 13.4519C15.1209 12.8735 15.1209 12.3777 15.0588 12.2744C14.9966 12.1711 14.8307 12.1091 14.5819 11.9852ZM10.0418 18.1544H10.0385C8.55329 18.1538 7.09661 17.7568 5.82583 17.0062L5.52359 16.8277L2.39096 17.6455L3.22712 14.6059L3.03031 14.2943C2.20179 12.9827 1.76423 11.4669 1.76484 9.91046C1.76664 5.36878 5.47964 1.67381 10.0451 1.67381C12.2559 1.67467 14.334 2.53262 15.8967 4.08958C17.4594 5.64657 18.3195 7.71616 18.3186 9.91714C18.3168 14.4591 14.6038 18.1544 10.0418 18.1544ZM17.0861 2.90644C15.206 1.03317 12.7057 0.00103571 10.0418 0C4.55297 0 0.0857397 4.44554 0.0835155 9.90982C0.082798 11.6565 0.541345 13.3616 1.41274 14.8644L0 20L5.279 18.6219C6.73349 19.4114 8.37109 19.8275 10.0377 19.8282H10.0419C15.5302 19.8282 19.9978 15.3821 20 9.91771C20.001 7.26966 18.9662 4.77968 17.0861 2.90644Z" fill="#667085"/>
</svg>
