<svg width="17" height="17" viewBox="0 0 17 17" fill="none" xmlns="http://www.w3.org/2000/svg">
<path d="M8.98294 0.212648C8.85906 0.0771714 8.68401 0 8.50041 0C8.31681 0 8.14175 0.0771714 8.01787 0.212648L4.53067 4.02675C4.287 4.29326 4.30552 4.70684 4.57203 4.9505C4.83854 5.19417 5.25212 5.17565 5.49578 4.90915L7.84656 2.33798V11.9872C7.84656 12.3483 8.13931 12.641 8.50041 12.641C8.8615 12.641 9.15425 12.3483 9.15425 11.9872V2.33798L11.505 4.90915C11.7487 5.17565 12.1623 5.19417 12.4288 4.9505C12.6953 4.70684 12.7138 4.29326 12.4701 4.02675L8.98294 0.212648Z" fill="#667085"/>
<path d="M1.30769 11.1155C1.30769 10.7544 1.01496 10.4617 0.653847 10.4617C0.29274 10.4617 4.56779e-07 10.7544 4.56779e-07 11.1155V11.1634C-1.69791e-05 12.3556 -3.44775e-05 13.3166 0.101582 14.0725C0.207087 14.8572 0.432786 15.5178 0.957536 16.0426C1.48229 16.5674 2.14299 16.7931 2.92771 16.8986C3.68353 17.0001 4.64452 17.0001 5.83678 17.0001H11.1632C12.3555 17.0001 13.3165 17.0001 14.0723 16.8986C14.857 16.7931 15.5177 16.5674 16.0425 16.0426C16.5672 15.5178 16.7929 14.8572 16.8984 14.0725C17 13.3166 17 12.3556 17 11.1634V11.1155C17 10.7544 16.7073 10.4617 16.3462 10.4617C15.9851 10.4617 15.6923 10.7544 15.6923 11.1155C15.6923 12.3669 15.6909 13.2396 15.6024 13.8982C15.5164 14.5379 15.3591 14.8766 15.1178 15.1179C14.8765 15.3592 14.5378 15.5165 13.8981 15.6026C13.2395 15.691 12.3668 15.6924 11.1154 15.6924H5.88462C4.63323 15.6924 3.76046 15.691 3.10195 15.6026C2.46225 15.5165 2.12349 15.3592 1.88221 15.1179C1.64094 14.8766 1.48362 14.5379 1.39762 13.8982C1.30908 13.2396 1.30769 12.3669 1.30769 11.1155Z" fill="#667085"/>
</svg>
